<svg width="306" height="64" viewBox="0 0 306 64" fill="none" xmlns="http://www.w3.org/2000/svg">
<g opacity="0.9" filter="url(#filter0_d)">
<path fill-rule="evenodd" clip-rule="evenodd" d="M23.1216 36.8774H40.8775V19.1215H23.1216V36.8774Z" fill="#6D28D9"/>
<path fill-rule="evenodd" clip-rule="evenodd" d="M23.1216 17.756H40.8775V0H23.1216V17.756Z" fill="#6D28D9"/>
<path fill-rule="evenodd" clip-rule="evenodd" d="M4 36.8774H21.756V19.1215H4V36.8774Z" fill="#6D28D9"/>
<path d="M4 2C4 0.895429 4.89543 0 6 0H21.76V17.76H4V2Z" fill="#6D28D9"/>
<path d="M4 38.24H21.76V56H6C4.89543 56 4 55.1046 4 54V38.24Z" fill="#6D28D9"/>
<path d="M23.12 38.24H60V54C60 55.1046 59.1046 56 58 56H23.12V38.24Z" fill="#8B5CF6"/>
<path d="M42.24 0H58C59.1046 0 60 0.895431 60 2V36.88H42.24V0Z" fill="#8B5CF6"/>
<rect x="23.12" width="17.76" height="17.76" fill="#6D28D9"/>
<path fill-rule="evenodd" clip-rule="evenodd" d="M117.937 35.4919C118.975 34.5946 119.495 33.3798 119.495 31.8484V30.9378H114.626C112.029 30.9378 110.73 31.8751 110.73 33.7496C110.73 34.6736 111.068 35.4 111.743 35.9274C112.392 36.4562 113.262 36.7195 114.353 36.7195C115.781 36.7195 116.976 36.3106 117.937 35.4919ZM123.546 39.7289H122.806L120.118 36.838C118.638 39.0296 116.391 40.1249 113.379 40.1249C111.353 40.1249 109.717 39.5703 108.471 38.4617C107.198 37.3526 106.562 35.8617 106.562 33.9867C106.562 31.9798 107.354 30.436 108.938 29.3531C110.314 28.4292 112.119 27.967 114.353 27.967H119.456V26.7788C119.456 24.2183 118.131 22.9378 115.482 22.9378C113.353 22.9378 111.626 23.848 110.301 25.6702L107.653 23.2939C109.367 20.5749 112.067 19.2145 115.755 19.2145C118.196 19.2145 120.105 19.8618 121.481 21.1552C122.858 22.4223 123.546 24.2183 123.546 26.5413V39.7289Z" fill="#D6D3D1"/>
<path fill-rule="evenodd" clip-rule="evenodd" d="M145.166 19.6902L136.245 43.531C135.025 46.7517 132.804 48.3625 129.584 48.3625H126.78V44.7196H129.117C130.882 44.7196 132.064 43.9399 132.661 42.3828L133.674 39.6895L125.883 19.6902H130.363L135.7 34.9374L140.92 19.6902H145.166Z" fill="#D6D3D1"/>
<path fill-rule="evenodd" clip-rule="evenodd" d="M162.12 27.9666L158.029 23.1746C157.562 22.9903 157.042 22.8975 156.471 22.8975C153.329 22.8975 151.498 24.5874 150.979 27.9666H162.12ZM166.015 30.9373H150.9C151.134 32.5743 151.744 33.881 152.732 34.8578C153.822 35.9402 155.263 36.4815 157.055 36.4815C159.601 36.4815 161.496 35.4785 162.743 33.4716L165.43 35.7289C163.82 38.713 161.016 40.2039 157.016 40.2039C153.874 40.2039 151.355 39.1614 149.459 37.0755C147.667 35.1215 146.772 32.6538 146.772 29.6697C146.772 26.7131 147.654 24.2441 149.42 22.2638C151.238 20.2312 153.575 19.2145 156.432 19.2145C157.73 19.2145 158.925 19.4125 160.016 19.8085L166.015 26.7788V30.9373Z" fill="#D6D3D1"/>
<path fill-rule="evenodd" clip-rule="evenodd" d="M170.615 19.6901H171.434L174.55 22.6609C174.862 21.974 175.536 21.2812 176.575 20.5815C177.613 19.8822 178.808 19.5316 180.159 19.5316C180.73 19.5316 181.171 19.5982 181.483 19.7296V23.8091H179.458H174.666V29.4722V39.729H170.615V19.6901Z" fill="#D6D3D1"/>
<path fill-rule="evenodd" clip-rule="evenodd" d="M202.947 35.8486V39.7291H187.015V13.4955H191.183V35.8486H202.947Z" fill="#D6D3D1"/>
<path fill-rule="evenodd" clip-rule="evenodd" d="M217.247 35.4919C218.286 34.5946 218.806 33.3798 218.806 31.8484V30.9378H213.937C211.34 30.9378 210.041 31.8751 210.041 33.7496C210.041 34.6736 210.379 35.4 211.054 35.9274C211.703 36.4562 212.573 36.7195 213.664 36.7195C215.092 36.7195 216.287 36.3106 217.247 35.4919ZM222.856 39.7289H222.117L219.428 36.838C217.948 39.0296 215.702 40.1249 212.689 40.1249C210.664 40.1249 209.028 39.5703 207.781 38.4617C206.509 37.3526 205.873 35.8617 205.873 33.9867C205.873 31.9798 206.665 30.436 208.249 29.3531C209.625 28.4292 211.43 27.967 213.664 27.967H218.766V26.7788C218.766 24.2183 217.442 22.9378 214.793 22.9378C212.663 22.9378 210.937 23.848 209.612 25.6702L206.963 23.2939C208.677 20.5749 211.378 19.2145 215.066 19.2145C217.506 19.2145 219.415 19.8618 220.792 21.1552C222.169 22.4223 222.856 24.2183 222.856 26.5413V39.7289Z" fill="#D6D3D1"/>
<path fill-rule="evenodd" clip-rule="evenodd" d="M227.227 19.6895H228.124L231.24 23.1354C232.227 20.5216 234.252 19.2145 237.317 19.2145C239.238 19.2145 240.77 19.8481 241.913 21.1157C243.082 22.4095 243.666 24.1784 243.666 26.4218V39.7284H239.576V27.0954C239.576 24.4026 238.33 23.0559 235.837 23.0559C234.512 23.0559 233.434 23.4658 232.604 24.2836C231.72 25.1818 231.279 26.3961 231.279 27.9275V39.7284H227.227V19.6895Z" fill="#D6D3D1"/>
<path fill-rule="evenodd" clip-rule="evenodd" d="M261.404 34.501C262.442 33.2338 262.962 31.6234 262.962 29.6694C262.962 27.7687 262.442 26.1983 261.404 24.9569C260.365 23.6897 258.988 23.0561 257.274 23.0561C255.69 23.0561 254.391 23.624 253.379 24.7588C252.34 25.9736 251.821 27.624 251.821 29.7089C251.821 31.7948 252.34 33.4585 253.379 34.6995C254.391 35.8876 255.69 36.4817 257.274 36.4817C258.988 36.4817 260.365 35.8219 261.404 34.501ZM262.845 13.4941H266.935V39.7282H263.118V36.1247C261.922 38.8176 259.728 40.1637 256.534 40.1637C253.911 40.1637 251.768 39.1874 250.107 37.2334C248.444 35.2794 247.614 32.7579 247.614 29.669C247.614 26.5802 248.444 24.0592 250.107 22.1047C251.768 20.1782 253.911 19.2143 256.534 19.2143C259.546 19.2143 261.65 20.4814 262.845 23.0162" fill="#D6D3D1"/>
<path fill-rule="evenodd" clip-rule="evenodd" d="M270.531 36.0461L273.025 33.6303C274.53 35.5843 276.621 36.5607 279.296 36.5607C280.334 36.5607 281.191 36.3626 281.867 35.9671C282.594 35.5186 282.958 34.9108 282.958 34.1449C282.958 33.0629 281.984 32.2837 280.036 31.8081L276.998 31.096C273.18 30.1982 271.272 28.2313 271.272 25.1948C271.272 23.4264 271.972 22.0012 273.375 20.9178C274.803 19.8087 276.634 19.2542 278.868 19.2542C282.399 19.2542 284.996 20.3109 286.659 22.4225L284.438 25.0758C282.906 23.5716 281.023 22.819 278.789 22.819C277.751 22.819 276.92 23.0304 276.297 23.4526C275.673 23.8748 275.361 24.4294 275.361 25.1153C275.361 26.2511 276.322 27.0427 278.244 27.4916L281.672 28.3232C285.256 29.1686 287.048 31.0431 287.048 33.9473C287.048 35.9014 286.308 37.4322 284.828 38.5413C283.425 39.6238 281.581 40.1646 279.296 40.1646C275.27 40.1646 272.348 38.7922 270.531 36.0461Z" fill="#D6D3D1"/>
<path fill-rule="evenodd" clip-rule="evenodd" d="M98.2676 39.7282H102.319V13.4941H98.2676V39.7282Z" fill="#D6D3D1"/>
<path fill-rule="evenodd" clip-rule="evenodd" d="M293.322 14.4531H291.897V19.6251H290.554V14.4531H289.121V13.2303H293.322V14.4531ZM301.241 13.2303V19.625H299.942V15.4132L298.347 17.7138H297.734L296.129 15.4041V19.625H294.84V13.2303H296.084L298.04 16.1378L299.997 13.2303H301.241Z" fill="#D6D3D1"/>
<path fill-rule="evenodd" clip-rule="evenodd" d="M85.3229 26.2085C88.5424 26.2085 90.1531 24.7433 90.1531 21.8129C90.1531 20.3344 89.6722 19.1991 88.7119 18.407C87.855 17.7202 86.7252 17.377 85.3229 17.377H79.1676V26.2085H85.3229ZM74.9998 13.4971H85.9066C88.3475 13.4971 90.3731 14.1839 91.9837 15.5563C93.7232 17.0877 94.5936 19.174 94.5936 21.814C94.5936 24.4806 93.7232 26.5656 91.9837 28.0708C90.3993 29.417 88.3737 30.0905 85.9066 30.0905H79.1675V39.7311H74.9998V13.4971Z" fill="#D6D3D1"/>
</g>
<defs>
<filter id="filter0_d" x="0" y="0" width="305.241" height="64" filterUnits="userSpaceOnUse" color-interpolation-filters="sRGB">
<feFlood flood-opacity="0" result="BackgroundImageFix"/>
<feColorMatrix in="SourceAlpha" type="matrix" values="0 0 0 0 0 0 0 0 0 0 0 0 0 0 0 0 0 0 127 0"/>
<feOffset dy="4"/>
<feGaussianBlur stdDeviation="2"/>
<feColorMatrix type="matrix" values="0 0 0 0 0 0 0 0 0 0 0 0 0 0 0 0 0 0 0.25 0"/>
<feBlend mode="normal" in2="BackgroundImageFix" result="effect1_dropShadow"/>
<feBlend mode="normal" in="SourceGraphic" in2="effect1_dropShadow" result="shape"/>
</filter>
</defs>
</svg>
