<svg width="1691" height="378" viewBox="0 0 1691 378" fill="none" xmlns="http://www.w3.org/2000/svg">
<path fill-rule="evenodd" clip-rule="evenodd" d="M1106.12 258.362C1105 259.092 1095.58 259.545 1085.19 259.37C1069.4 259.103 1065.94 259.544 1064.03 262.067C1061.91 264.866 1061.82 264.861 1062.79 261.977C1063.72 259.238 1062.58 258.92 1053.17 259.267C1047.3 259.486 1042.5 260.16 1042.49 260.767C1042.49 261.376 1040.4 261.46 1037.85 260.956C1034.5 260.295 1033.58 260.653 1034.53 262.245C1035.48 263.82 1034.79 263.766 1032.11 262.055C1028.95 260.031 1028.12 260.08 1026.7 262.373C1025.59 264.174 1025.02 264.326 1025.01 262.824C1024.97 260.04 1001.24 259.619 999.587 262.373C998.991 263.366 999.34 264.179 1000.36 264.179C1001.38 264.179 1002.21 264.992 1002.21 265.986C1002.21 269.35 998.389 267.818 997.442 264.075C996.578 260.675 995.514 260.434 984.908 261.26C978.534 261.757 972.359 262.21 971.184 262.268C969.893 262.331 969.505 263.621 970.2 265.534C971.205 268.302 970.981 268.387 968.393 266.217C966.768 264.853 965.438 264.342 965.438 265.083C965.438 265.824 964.454 265.69 963.249 264.788C959.94 262.31 943.189 263.296 939.817 266.17C937.529 268.118 936.682 268.181 936.118 266.452C935.652 265.027 934.32 264.74 932.462 265.663C930.854 266.463 926.14 266.953 921.986 266.75C916.298 266.472 913.601 267.303 911.06 270.116C909.204 272.172 907.151 273.303 906.5 272.629C905.847 271.957 906.279 271.406 907.46 271.406C908.64 271.406 909.12 270.593 908.524 269.6C907.929 268.606 903.997 267.793 899.788 267.793C893.24 267.793 892.021 268.382 891.373 271.858L890.613 275.923L890.375 271.858C890.119 267.497 887.415 266.335 886.17 270.051C884.995 273.563 888.517 280.161 891.674 280.358C902.626 281.043 912.922 280.861 918.156 279.887C921.527 279.262 928.816 278.584 934.355 278.382C943.738 278.04 945.23 277.155 944.606 272.31C944.478 271.316 945.457 271.927 946.781 273.665C949.826 277.665 954.591 277.704 958.808 273.766C961.237 271.498 961.836 271.381 961.116 273.314C960.363 275.345 962.071 276.006 968.809 276.299C976.488 276.631 977.56 276.221 978.238 272.685L979.003 268.696L980.275 272.64C981.464 276.326 982.418 276.535 994.944 275.852C1002.31 275.451 1013.27 274.991 1019.29 274.828C1025.31 274.665 1030.23 273.8 1030.23 272.906C1030.23 272.011 1031.87 272.185 1033.88 273.294C1036.73 274.866 1038.17 274.711 1040.45 272.581C1042.56 270.608 1044.23 270.349 1046.47 271.646C1050.62 274.039 1070.08 275.395 1071.29 273.377C1071.82 272.494 1075.02 272.429 1078.47 273.233C1081.9 274.029 1088.8 274.149 1093.81 273.497C1098.81 272.842 1107.9 272.72 1113.99 273.22C1120.09 273.721 1125.37 273.833 1125.72 273.469C1126.07 273.104 1141.37 272.817 1159.73 272.828C1189.56 272.846 1193.1 272.534 1193.12 269.869C1193.14 267.448 1193.44 267.361 1194.69 269.406C1195.6 270.882 1197.76 271.513 1199.92 270.931C1201.95 270.385 1203.6 270.609 1203.6 271.431C1203.6 272.254 1209.12 272.788 1215.86 272.618C1222.64 272.447 1228.13 271.502 1228.15 270.503C1228.16 269.509 1228.78 269.69 1229.53 270.902C1230.51 272.488 1236.54 272.945 1250.96 272.526C1261.99 272.207 1271.81 271.726 1272.77 271.46C1273.74 271.195 1274.92 271.175 1275.4 271.417C1278.86 273.146 1299.32 273.771 1313.49 272.581C1318.55 272.156 1322.68 272.328 1322.68 272.962C1322.68 273.598 1324.46 274.286 1326.62 274.494C1341.11 275.88 1348.36 275.858 1350.27 274.422C1351.67 273.365 1352.45 273.5 1352.45 274.799C1352.45 277.659 1363.88 277.33 1366.23 274.402C1367.31 273.068 1367.78 271.558 1367.28 271.045C1366.79 270.534 1367.58 269.086 1369.05 267.829C1371.24 265.954 1371.72 266.031 1371.72 268.254C1371.72 269.744 1370.54 271.968 1369.11 273.197C1364.76 276.92 1367.58 278.19 1380.46 278.317C1387.22 278.382 1393.54 278.938 1394.51 279.552C1395.47 280.167 1396.74 279.374 1397.33 277.791C1398.29 275.198 1398.61 275.216 1400.57 277.975C1402.59 280.826 1402.89 280.799 1404.87 277.578C1406.62 274.741 1406.83 274.687 1406.05 277.278C1405.44 279.3 1406.03 280.44 1407.67 280.44C1409.09 280.44 1410.27 279.018 1410.3 277.278C1410.35 274.497 1410.61 274.447 1412.49 276.855C1413.96 278.749 1417.33 279.484 1423.38 279.235C1428.19 279.038 1435.92 279.8 1440.55 280.929C1447.15 282.537 1449.75 282.481 1452.56 280.674C1454.53 279.404 1455.62 279.24 1454.98 280.306C1454.32 281.403 1455.19 282.306 1456.99 282.385C1458.73 282.461 1461.73 282.907 1463.66 283.379C1466.76 284.136 1482.05 284.385 1485.22 283.73C1485.88 283.592 1487.81 284.107 1489.51 284.873C1491.21 285.639 1494.17 285.845 1496.08 285.328C1497.99 284.814 1499.56 285.021 1499.56 285.789C1499.56 286.559 1502.91 287.198 1507 287.211C1514.1 287.234 1521.35 288.181 1537.54 291.207C1542.15 292.069 1545.57 291.867 1546.73 290.665C1548.04 289.316 1548.59 289.392 1548.59 290.918C1548.59 293.787 1553.3 293.713 1554.43 290.828C1555.14 289.021 1555.34 289.021 1555.46 290.828C1555.65 294.031 1562.6 293.646 1562.6 290.432C1562.6 288.868 1563.63 288.188 1565.11 288.776C1566.5 289.323 1567.23 290.842 1566.75 292.149C1566.14 293.771 1567.3 294.441 1570.39 294.257C1574.2 294.031 1574.49 293.67 1572.21 291.944C1569.77 290.105 1569.78 289.791 1572.27 288.804C1573.87 288.17 1574.59 288.463 1573.97 289.493C1573.38 290.476 1573.73 291.28 1574.75 291.28C1575.77 291.28 1576.61 292.499 1576.61 293.99C1576.61 296.88 1578.69 297.561 1580.82 295.368C1582.98 293.135 1587.87 293.834 1590.12 296.7C1592.02 299.108 1592.27 299.108 1592.34 296.7C1592.39 294.989 1592.9 294.701 1593.71 295.921C1595.1 298.013 1609.92 304.485 1610.94 303.442C1611.27 303.092 1610.25 300.886 1608.65 298.539C1605.94 294.537 1605.69 294.485 1604.6 297.695C1603.52 300.864 1603.1 300.747 1598.96 296.141C1596.22 293.086 1592.39 291.012 1589.06 290.77C1586.07 290.553 1583.62 289.834 1583.62 289.171C1583.6 285.178 1551.69 277.791 1546.57 280.597C1544.57 281.695 1543.38 281.361 1542.69 279.504C1542.07 277.825 1539.35 276.826 1535.41 276.826C1530.84 276.826 1529.48 277.446 1530.43 279.085C1531.25 280.492 1530.58 280.365 1528.65 278.747C1526.94 277.318 1523.41 276.046 1520.79 275.919C1518.17 275.793 1515.05 275.067 1513.86 274.306C1512.67 273.543 1505.61 272.611 1498.18 272.234C1490.75 271.854 1484.67 271.439 1484.67 271.307C1484.67 269.86 1470.33 270.597 1469.37 272.093C1468.47 273.522 1468.08 273.453 1468.06 271.858C1468.05 270.617 1467.2 269.6 1466.18 269.6C1465.16 269.6 1464.86 270.497 1465.52 271.594C1466.18 272.691 1464.84 272.38 1462.56 270.906C1457.64 267.733 1436.51 265.198 1436.51 267.782C1436.51 268.799 1434.64 268.644 1432.01 267.404C1428.36 265.692 1427.21 265.784 1425.93 267.896C1424.62 270.066 1423.75 270.111 1420.71 268.167C1417.08 265.843 1408.37 264.53 1388.35 263.285C1382.57 262.926 1377.85 262.517 1377.85 262.38C1377.85 262.241 1374.56 261.979 1370.55 261.798C1364.82 261.54 1363.65 261.963 1365.11 263.769C1366.51 265.515 1366.27 265.795 1364.08 264.931C1362.5 264.304 1361.21 263.025 1361.21 262.087C1361.21 261.148 1357.07 260.476 1352.02 260.593C1344.18 260.776 1311.39 259.538 1293.76 258.395C1290.85 258.207 1287.06 258.61 1285.35 259.289C1283.47 260.031 1282.65 259.813 1283.29 258.74C1284.8 256.225 1281.78 256.51 1279.25 259.121C1277.62 260.806 1276.68 260.806 1275.05 259.121C1272.45 256.441 1264.89 256.254 1264.89 258.866C1264.89 259.918 1263.96 260.183 1262.81 259.453C1260.36 257.89 1215.74 257.083 1216.64 258.617C1216.97 259.193 1215.17 261.233 1212.62 263.151L1207.98 266.642L1211.32 262.7C1214.65 258.767 1214.64 258.759 1209.56 258.591C1206.77 258.497 1201.52 258.214 1197.91 257.959C1194.04 257.688 1191.33 258.315 1191.32 259.484C1191.3 260.606 1190.65 260.423 1189.81 259.063C1188.36 256.696 1179.73 257.021 1175.69 259.594C1174.67 260.246 1173.83 260.122 1173.83 259.318C1173.83 257.056 1141.66 258.073 1140.92 260.36C1140.49 261.679 1138.69 261.466 1135.39 259.708C1132.7 258.272 1130.04 257.567 1129.48 258.142C1128.23 259.433 1115.34 259.339 1111.2 258.01C1109.53 257.473 1107.24 257.632 1106.12 258.362ZM957.558 267.793C958.153 268.787 957.852 269.6 956.889 269.6C955.926 269.6 954.651 268.787 954.056 267.793C953.46 266.799 953.761 265.986 954.725 265.986C955.688 265.986 956.963 266.799 957.558 267.793ZM859.752 270.515C857.233 271.863 854.778 272.311 854.298 271.509C853.109 269.524 844.43 269.628 840.665 271.675C838.623 272.785 837.601 272.674 837.601 271.348C837.601 270.252 836.221 269.793 834.536 270.326C832.851 270.859 828.601 271.48 825.092 271.706C820.828 271.983 818.991 272.866 819.551 274.371C820.071 275.773 819.006 276.517 816.737 276.34C814.728 276.185 813.084 275.146 813.084 274.033C813.084 271.473 806.674 271.876 804.032 274.602C802.734 275.941 800.99 276.076 799.022 274.991C797.157 273.961 790.066 274.049 780.464 275.222C771.918 276.264 759.804 277.305 753.543 277.533C747.282 277.76 740.542 278.859 738.563 279.972C736.584 281.083 733.945 281.343 732.697 280.546C731.446 279.749 727.55 279.737 724.035 280.515C720.519 281.294 711.617 282.309 704.252 282.77C696.886 283.233 689.938 284.199 688.808 284.918C687.68 285.637 681.886 286.562 675.931 286.971C659.605 288.093 651.975 289.005 642.37 290.981C637.57 291.97 633.039 292.393 632.3 291.923C631.563 291.451 630.959 291.84 630.959 292.786C630.959 293.733 629.736 294.991 628.241 295.583C626.745 296.174 625.926 295.986 626.418 295.166C627.435 293.466 618 293.881 612.254 295.787C609.626 296.66 608.776 297.986 609.529 300.04C610.482 302.635 610.216 302.606 607.494 299.822C605.046 297.319 602.584 296.841 596.21 297.632C591.723 298.188 585.655 298.869 582.722 299.144C579.789 299.419 576.637 300.102 575.717 300.663C574.798 301.225 571.877 301.431 569.229 301.122C566.581 300.813 564.413 301.307 564.413 302.221C564.413 303.135 563.033 303.764 561.349 303.619C554.732 303.046 551.95 303.93 553.263 306.185C554.156 307.719 553.629 307.648 551.615 305.964C549.777 304.425 548.652 304.232 548.652 305.455C548.652 306.539 547.551 306.99 546.202 306.456C544.856 305.923 543.225 306.369 542.579 307.446C541.933 308.524 540.765 308.996 539.98 308.497C537.763 307.083 509.996 311.09 505.902 313.415C503.892 314.557 500.337 315.617 498.002 315.769C495.668 315.923 492.318 317.883 490.56 320.125C487.633 323.852 486.49 323.634 487.232 319.491C487.626 317.283 470.98 319.393 470.253 321.643C469.931 322.64 467.414 323.088 464.658 322.64C458.725 321.675 456.352 324.564 459.628 328.761C461.77 331.503 461.604 331.5 457.686 328.718C453.324 325.619 443.449 325.845 435.7 329.22C433.773 330.058 429.998 331.24 427.31 331.843C424.622 332.445 422.862 333.671 423.398 334.568C423.935 335.464 423.525 336.737 422.489 337.399C421.273 338.174 421.704 339.429 423.701 340.936C427.252 343.614 431.898 342.513 430.099 339.418C429.439 338.28 430.227 338.463 431.852 339.821C434.374 341.932 435.458 341.854 439.242 339.296C441.684 337.646 444.391 336.75 445.26 337.305C446.13 337.859 447.356 337.453 447.984 336.403C448.613 335.352 450.758 335.026 452.748 335.679C455.557 336.598 456.133 336.23 455.317 334.036C454.469 331.76 455.014 331.505 458.117 332.732C461.001 333.87 463.029 333.279 466.19 330.381C468.512 328.251 469.88 327.469 469.227 328.643C467.374 331.973 470.722 332.99 474.401 330.215C476.275 328.801 478.49 328.372 479.492 329.231C482.411 331.731 493.486 328.549 493.512 325.204C493.54 321.447 496.046 318.719 496.323 322.143C496.438 323.55 496.412 325.39 496.269 326.228C495.65 329.827 500.508 325.836 501.585 321.859C502.363 318.989 502.832 318.568 502.946 320.638C503.105 323.523 506.564 324.882 511.001 323.802C511.965 323.567 514.329 323.167 516.255 322.914C518.181 322.662 519.757 322.246 519.757 321.993C519.757 321.301 525.563 320.382 537.27 319.222C549.507 318.008 552.689 317.119 551.558 315.231C551.107 314.479 553.027 313.863 555.823 313.863C558.622 313.863 560.911 314.396 560.911 315.048C560.911 315.7 562.487 315.809 564.413 315.29C566.339 314.77 567.916 313.587 567.916 312.66C567.916 311.728 571.4 311.397 575.715 311.921C581.225 312.589 584.27 312.089 586.082 310.219C587.921 308.324 588.844 308.179 589.34 309.711C589.87 311.355 592.839 311.345 602.176 309.659C608.857 308.454 615.701 307.433 617.387 307.392C619.073 307.35 620.452 306.537 620.452 305.587C620.452 304.636 622.432 304.371 624.852 304.998C627.376 305.65 630.363 305.186 631.857 303.906C633.29 302.68 634.461 302.429 634.461 303.346C634.461 304.356 639.14 304.411 646.282 303.484C652.784 302.638 660.073 302.006 662.48 302.078C664.888 302.149 670.405 301.383 674.739 300.373C679.073 299.364 686.559 298.174 691.375 297.728C696.191 297.283 702.889 296.411 706.26 295.791C709.632 295.171 717.512 294.405 723.773 294.091C745.475 292.998 763.185 290.909 765.208 289.204C766.336 288.255 767.661 288.192 768.183 289.063C769.509 291.276 783.816 289.838 788.129 287.057C789.334 286.281 790.318 286.376 790.318 287.269C790.318 288.161 792.878 288.6 796.01 288.244C799.141 287.888 804.251 287.419 807.366 287.2C813.352 286.783 816.493 282.64 812.706 280.16C811.469 279.35 811.121 278.676 811.932 278.66C812.744 278.646 815.411 280.259 817.859 282.246C822.405 285.935 835.849 287.395 835.849 284.199C835.849 283.213 838.404 283.265 842.138 284.329C849.884 286.535 853.645 285.287 852.292 280.96C851.651 278.915 851.829 278.505 852.777 279.845C855.037 283.041 863.869 284.933 863.869 282.221C863.869 280.465 864.419 280.468 866.48 282.232C868.231 283.733 871.704 284.064 877.034 283.24C884.792 282.038 884.967 281.865 884.573 275.805C884.324 271.995 883.251 269.6 881.796 269.6C880.491 269.6 879.961 270.497 880.617 271.594C881.274 272.691 879.745 272.19 877.218 270.483C874.576 268.696 872.625 268.214 872.625 269.347C872.625 270.673 871.268 270.785 868.478 269.69C865.651 268.581 862.876 268.844 859.752 270.515ZM934.612 272.911C935.108 273.74 934.402 274.418 933.041 274.418C931.68 274.418 930.975 273.74 931.47 272.911C931.966 272.084 932.673 271.406 933.041 271.406C933.409 271.406 934.116 272.084 934.612 272.911ZM694.002 291.386C694.002 292.322 693.214 293.086 692.251 293.086C691.288 293.086 690.5 291.818 690.5 290.27C690.5 288.721 691.288 287.955 692.251 288.57C693.214 289.184 694.002 290.45 694.002 291.386ZM452.336 328.21C452.336 328.649 451.548 329.509 450.585 330.123C449.622 330.737 448.834 330.378 448.834 329.326C448.834 328.275 449.622 327.413 450.585 327.413C451.548 327.413 452.336 327.771 452.336 328.21ZM403.74 340.203C401.574 341.053 399.8 342.589 399.8 343.615C399.8 346.259 404.583 345.937 405.651 343.222C406.336 341.478 406.926 341.534 408.236 343.465C410.146 346.284 419.063 344.866 419.063 341.742C419.063 340.499 418.044 340.468 416.001 341.65C413.857 342.885 412.146 342.701 410.309 341.035C408.54 339.433 406.392 339.16 403.74 340.203ZM392.795 343.567C392.795 344.502 393.706 345.847 394.818 346.555C396.012 347.317 396.366 347.055 395.681 345.913C395.046 344.851 395.515 343.57 396.725 343.066C398.052 342.515 397.709 342.096 395.86 342.009C394.174 341.932 392.795 342.631 392.795 343.567ZM384.039 347.314C384.039 348.41 384.827 348.804 385.791 348.19C386.754 347.576 387.542 348.342 387.542 349.89C387.542 351.438 388.724 352.707 390.169 352.707C393.016 352.707 393.489 351.044 391.456 348.19C389.613 345.605 384.039 344.947 384.039 347.314ZM402.427 349.093C401.832 350.087 402.18 350.9 403.199 350.9C404.218 350.9 405.054 350.087 405.054 349.093C405.054 348.1 404.707 347.287 404.281 347.287C403.856 347.287 403.022 348.1 402.427 349.093ZM375.422 351.953C375.506 354.058 375.921 354.486 376.479 353.046C376.985 351.742 376.922 350.183 376.341 349.583C375.76 348.983 375.346 350.049 375.422 351.953ZM363.025 354.515C360.841 356.015 360.801 356.587 362.781 357.904C365.858 359.953 372.122 358.28 371.27 355.639C370.38 352.884 366.224 352.318 363.025 354.515ZM353.553 357.861C353.045 358.708 353.761 360.943 355.144 362.829C356.528 364.714 357.685 365.306 357.715 364.146C357.747 362.985 358.249 360.75 358.834 359.178C359.959 356.155 355.274 354.987 353.553 357.861ZM347.04 360.024C346.072 363.55 346.238 368.967 347.317 368.967C349.63 368.967 350.954 363.017 349.073 361.077C348.078 360.051 347.164 359.576 347.04 360.024ZM337.632 364.929C335.685 366.405 334.81 374.387 336.596 374.387C337.219 374.387 339.11 372.723 340.799 370.688C344.875 365.778 342.415 361.305 337.632 364.929ZM329.752 370.667C329.752 372.712 330.54 374.387 331.503 374.387C332.466 374.387 333.254 373.216 333.254 371.783C333.254 370.351 332.466 368.678 331.503 368.063C330.54 367.449 329.752 368.622 329.752 370.667ZM322.523 372.024C320.472 374.632 320.485 374.855 322.607 373.534C324.472 372.374 324.814 372.739 323.975 374.994C323.36 376.647 323.537 378 324.365 378C325.885 378 328.001 373.707 328.001 370.625C328.001 367.973 325.134 368.705 322.523 372.024Z" fill="#D6D3D1" fill-opacity="0.2"/>
<g filter="url(#filter0_d)">
<path fill-rule="evenodd" clip-rule="evenodd" d="M112.242 208.753H212.753V108.241H112.242V208.753Z" fill="#6D28D9"/>
<path fill-rule="evenodd" clip-rule="evenodd" d="M112.242 100.511H212.753V0H112.242V100.511Z" fill="#6D28D9"/>
<path fill-rule="evenodd" clip-rule="evenodd" d="M4 208.753H104.511V108.241H4V208.753Z" fill="#6D28D9"/>
<path d="M4 10C4 4.47716 8.47715 0 14 0H104.534V100.534H4V10Z" fill="#6D28D9"/>
<path d="M4 216.466H104.534V317H14C8.47716 317 4 312.523 4 307V216.466Z" fill="#6D28D9"/>
<path d="M112.234 216.466H321.001V307C321.001 312.523 316.524 317 311.001 317H112.234V216.466Z" fill="#8B5CF6"/>
<path d="M220.466 0H311C316.523 0 321 4.47715 321 10V208.767H220.466V0Z" fill="#8B5CF6"/>
<rect x="112.234" width="100.534" height="100.534" fill="#6D28D9"/>
<path fill-rule="evenodd" clip-rule="evenodd" d="M648.967 200.909C654.843 195.83 657.788 188.953 657.788 180.285V175.13H630.223C615.523 175.13 608.171 180.436 608.171 191.047C608.171 196.277 610.082 200.389 613.906 203.375C617.58 206.368 622.505 207.859 628.68 207.859C636.762 207.859 643.528 205.544 648.967 200.909ZM680.719 224.894H676.528L661.314 208.529C652.934 220.935 640.216 227.136 623.166 227.136C611.7 227.136 602.439 223.996 595.381 217.721C588.177 211.442 584.577 203.003 584.577 192.389C584.577 181.028 589.059 172.29 598.028 166.16C605.818 160.929 616.033 158.313 628.679 158.313H657.567V151.587C657.567 137.093 650.068 129.845 635.072 129.845C623.017 129.845 613.245 134.997 605.744 145.312L590.75 131.86C600.454 116.469 615.742 108.768 636.617 108.768C650.434 108.768 661.238 112.432 669.03 119.753C676.822 126.926 680.719 137.093 680.719 150.243V224.894Z" fill="#D6D3D1"/>
<path fill-rule="evenodd" clip-rule="evenodd" d="M803.102 111.461L752.605 246.417C745.695 264.648 733.124 273.767 714.899 273.767H699.022V253.145H712.254C722.246 253.145 728.934 248.731 732.318 239.917L738.051 224.671L693.949 111.461H719.309L749.517 197.771L779.065 111.461H803.102Z" fill="#D6D3D1"/>
<path fill-rule="evenodd" clip-rule="evenodd" d="M899.072 158.311L875.918 131.185C873.273 130.142 870.328 129.616 867.097 129.616C849.309 129.616 838.943 139.182 836.007 158.311H899.072ZM921.122 175.127H835.564C836.886 184.394 840.338 191.791 845.93 197.32C852.103 203.447 860.261 206.511 870.405 206.511C884.813 206.511 895.542 200.834 902.6 189.473L917.814 202.251C908.699 219.143 892.823 227.583 870.185 227.583C852.395 227.583 838.135 221.682 827.406 209.874C817.262 198.813 812.192 184.844 812.192 167.952C812.192 151.215 817.185 137.239 827.183 126.029C837.472 114.523 850.704 108.768 866.874 108.768C874.227 108.768 880.988 109.889 887.164 112.13L921.122 151.587V175.127Z" fill="#D6D3D1"/>
<path fill-rule="evenodd" clip-rule="evenodd" d="M947.162 111.46H951.795L969.434 128.277C971.199 124.389 975.018 120.467 980.9 116.506C986.776 112.547 993.54 110.563 1001.19 110.563C1004.42 110.563 1006.92 110.94 1008.68 111.684V134.776H997.216H970.094V166.834V224.894H947.162V111.46Z" fill="#D6D3D1"/>
<path fill-rule="evenodd" clip-rule="evenodd" d="M1130.19 202.929V224.895H1040V76.394H1063.59V202.929H1130.19Z" fill="#D6D3D1"/>
<path fill-rule="evenodd" clip-rule="evenodd" d="M1211.13 200.909C1217.01 195.83 1219.95 188.953 1219.95 180.285V175.13H1192.39C1177.69 175.13 1170.34 180.436 1170.34 191.047C1170.34 196.277 1172.25 200.389 1176.08 203.375C1179.75 206.368 1184.67 207.859 1190.85 207.859C1198.93 207.859 1205.69 205.544 1211.13 200.909ZM1242.89 224.894H1238.7L1223.48 208.529C1215.1 220.935 1202.39 227.136 1185.33 227.136C1173.87 227.136 1164.61 223.996 1157.55 217.721C1150.35 211.442 1146.75 203.003 1146.75 192.389C1146.75 181.028 1151.23 172.29 1160.2 166.16C1167.99 160.929 1178.2 158.313 1190.85 158.313H1219.73V151.587C1219.73 137.093 1212.24 129.845 1197.24 129.845C1185.18 129.845 1175.41 134.997 1167.91 145.312L1152.92 131.86C1162.62 116.469 1177.91 108.768 1198.79 108.768C1212.6 108.768 1223.41 112.432 1231.2 119.753C1238.99 126.926 1242.89 137.093 1242.89 150.243V224.894Z" fill="#D6D3D1"/>
<path fill-rule="evenodd" clip-rule="evenodd" d="M1267.63 111.457H1272.7L1290.34 130.963C1295.93 116.167 1307.39 108.768 1324.74 108.768C1335.62 108.768 1344.29 112.354 1350.76 119.53C1357.38 126.854 1360.68 136.867 1360.68 149.566V224.891H1337.53V153.379C1337.53 138.136 1330.47 130.513 1316.36 130.513C1308.86 130.513 1302.76 132.833 1298.06 137.462C1293.06 142.547 1290.56 149.421 1290.56 158.089V224.891H1267.63V111.457Z" fill="#D6D3D1"/>
<path fill-rule="evenodd" clip-rule="evenodd" d="M1461.09 195.3C1466.97 188.127 1469.91 179.011 1469.91 167.95C1469.91 157.19 1466.97 148.301 1461.09 141.273C1455.21 134.1 1447.41 130.514 1437.71 130.514C1428.74 130.514 1421.39 133.729 1415.66 140.153C1409.78 147.029 1406.84 156.371 1406.84 168.174C1406.84 179.981 1409.78 189.399 1415.66 196.424C1421.39 203.149 1428.74 206.512 1437.71 206.512C1447.41 206.512 1455.21 202.777 1461.09 195.3ZM1469.25 76.3865H1492.4V224.89H1470.79V204.492C1464.03 219.735 1451.6 227.356 1433.53 227.356C1418.67 227.356 1406.55 221.829 1397.14 210.768C1387.73 199.706 1383.03 185.433 1383.03 167.948C1383.03 150.463 1387.73 136.192 1397.14 125.128C1406.55 114.223 1418.67 108.767 1433.53 108.767C1450.58 108.767 1462.48 115.94 1469.25 130.288" fill="#D6D3D1"/>
<path fill-rule="evenodd" clip-rule="evenodd" d="M1512.76 204.046L1526.87 190.371C1535.4 201.432 1547.23 206.959 1562.37 206.959C1568.25 206.959 1573.1 205.838 1576.93 203.599C1581.04 201.06 1583.1 197.62 1583.1 193.284C1583.1 187.159 1577.59 182.748 1566.56 180.056L1549.37 176.025C1527.75 170.943 1516.95 159.809 1516.95 142.62C1516.95 132.61 1520.92 124.542 1528.86 118.409C1536.94 112.131 1547.3 108.992 1559.95 108.992C1579.94 108.992 1594.64 114.974 1604.05 126.927L1591.48 141.947C1582.81 133.432 1572.15 129.171 1559.51 129.171C1553.63 129.171 1548.92 130.368 1545.4 132.758C1541.87 135.148 1540.1 138.287 1540.1 142.17C1540.1 148.6 1545.54 153.081 1556.42 155.622L1575.83 160.329C1596.11 165.115 1606.26 175.726 1606.26 192.166C1606.26 203.227 1602.07 211.893 1593.69 218.171C1585.75 224.299 1575.31 227.36 1562.37 227.36C1539.59 227.36 1523.05 219.591 1512.76 204.046Z" fill="#D6D3D1"/>
<path fill-rule="evenodd" clip-rule="evenodd" d="M537.625 224.89H560.559V76.3865H537.625V224.89Z" fill="#D6D3D1"/>
<path fill-rule="evenodd" clip-rule="evenodd" d="M1641.77 81.8147H1633.71V111.092H1626.1V81.8147H1617.99V74.8928H1641.77V81.8147ZM1686.59 74.8931V111.092H1679.25V87.25L1670.21 100.273H1666.74L1657.66 87.1987V111.092H1650.36V74.8931H1657.41L1668.48 91.3518L1679.55 74.8931H1686.59Z" fill="#D6D3D1"/>
<path fill-rule="evenodd" clip-rule="evenodd" d="M464.348 148.358C482.573 148.358 491.691 140.064 491.691 123.476C491.691 115.107 488.969 108.68 483.532 104.197C478.682 100.308 472.286 98.3656 464.348 98.3656H429.505V148.358H464.348ZM405.911 76.4027H467.652C481.469 76.4027 492.935 80.2909 502.052 88.0595C511.899 96.728 516.826 108.538 516.826 123.483C516.826 138.578 511.899 150.38 502.052 158.9C493.083 166.521 481.617 170.333 467.652 170.333H429.503V224.906H405.911V76.4027Z" fill="#D6D3D1"/>
</g>
<defs>
<filter id="filter0_d" x="0" y="0" width="1690.59" height="325" filterUnits="userSpaceOnUse" color-interpolation-filters="sRGB">
<feFlood flood-opacity="0" result="BackgroundImageFix"/>
<feColorMatrix in="SourceAlpha" type="matrix" values="0 0 0 0 0 0 0 0 0 0 0 0 0 0 0 0 0 0 127 0" result="hardAlpha"/>
<feOffset dy="4"/>
<feGaussianBlur stdDeviation="2"/>
<feColorMatrix type="matrix" values="0 0 0 0 0 0 0 0 0 0 0 0 0 0 0 0 0 0 0.25 0"/>
<feBlend mode="normal" in2="BackgroundImageFix" result="effect1_dropShadow"/>
<feBlend mode="normal" in="SourceGraphic" in2="effect1_dropShadow" result="shape"/>
</filter>
</defs>
</svg>
