<svg width="42" height="34" viewBox="0 0 42 34" fill="none" xmlns="http://www.w3.org/2000/svg">
<path d="M36.99 5.37598C38.7829 4.30416 40.1244 2.61645 40.764 0.627977C39.0793 1.62758 37.2361 2.33173 35.314 2.70998C32.6492 -0.108968 28.4271 -0.794971 25.0068 1.03529C21.5866 2.86555 19.815 6.75896 20.682 10.54C13.7812 10.1935 7.35196 6.93381 2.99403 1.57198C0.719711 5.49482 1.88194 10.5095 5.65003 13.032C4.28745 12.9882 2.95509 12.6193 1.76403 11.956C1.76403 11.992 1.76403 12.028 1.76403 12.064C1.76482 16.1503 4.64478 19.6701 8.65003 20.48C7.38616 20.8238 6.06044 20.8745 4.77403 20.628C5.90043 24.1225 9.12113 26.5166 12.792 26.588C9.75169 28.9742 5.99698 30.2683 2.13203 30.262C1.44697 30.263 0.762452 30.2236 0.0820312 30.144C4.00681 32.666 8.57477 34.0047 13.24 34C19.7305 34.0446 25.9681 31.4858 30.5575 26.896C35.1469 22.3062 37.7051 16.0685 37.66 9.57798C37.66 9.20598 37.6514 8.83598 37.634 8.46798C39.3149 7.25318 40.7657 5.74828 41.918 4.02398C40.3521 4.7181 38.691 5.17382 36.99 5.37598Z" fill="#D6D3D1"/>
</svg>
